<?xml version="1.0" encoding="utf-8"?>
<!-- Generator: Adobe Illustrator 26.0.3, SVG Export Plug-In . SVG Version: 6.00 Build 0)  -->
<svg version="1.1" id="Layer_1" xmlns="http://www.w3.org/2000/svg" xmlns:xlink="http://www.w3.org/1999/xlink" x="0px" y="0px"
	 viewBox="0 0 112 96" style="enable-background:new 0 0 112 96;" xml:space="preserve">
<style type="text/css">
	.st0{fill:url(#SVGID_1_);filter:url(#Adobe_OpacityMaskFilter);}
	.st1{mask:url(#mask0_00000044884069895254981300000013083840073905720248_);}
	.st2{opacity:5.000000e-02;}
	.st3{fill:none;stroke:#111827;stroke-width:2;}
	.st4{fill:#FFFFFF;}
	.st5{fill:none;stroke:#121826;stroke-opacity:8.000000e-02;}
	.st6{opacity:0.3;}
	.st7{fill:none;stroke:#4F46E5;stroke-width:2;stroke-linecap:round;}
	.st8{fill:none;stroke:#E5E7EB;}
	.st9{fill:#D3A98C;stroke:#D3A98C;}
</style>
<defs>
	<filter id="Adobe_OpacityMaskFilter" filterUnits="userSpaceOnUse" x="-5" y="-11" width="122" height="114">
		<feColorMatrix  type="matrix" values="1 0 0 0 0  0 1 0 0 0  0 0 1 0 0  0 0 0 1 0"/>
	</filter>
</defs>
<mask maskUnits="userSpaceOnUse" x="-5" y="-11" width="122" height="114" id="mask0_00000044884069895254981300000013083840073905720248_">
	
		<radialGradient id="SVGID_1_" cx="-929.2174" cy="1061.9319" r="1" gradientTransform="matrix(4.225032e-15 69 72.9204 -4.465087e-15 -77380.5 64164)" gradientUnits="userSpaceOnUse">
		<stop  offset="0.2319" style="stop-color:#C4C4C4"/>
		<stop  offset="0.7246" style="stop-color:#C4C4C4;stop-opacity:0"/>
	</radialGradient>
	<rect x="4" y="4" class="st0" width="104" height="88"/>
</mask>
<g class="st1">
	<g class="st2">
		<circle class="st3" cx="56" cy="46" r="8"/>
	</g>
	<g class="st2">
		<circle class="st3" cx="56" cy="46" r="16"/>
	</g>
	<g class="st2">
		<path class="st3" d="M66,67.8c2.5-1.2,4.9-2.8,7-4.9c9.4-9.4,9.4-24.6,0-33.9c-9.4-9.4-24.6-9.4-33.9,0c-9.4,9.4-9.4,24.6,0,33.9
			c2.1,2.1,4.4,3.7,7,4.9"/>
	</g>
	<g class="st2">
		<path class="st3" d="M46,76.4C33.2,72.2,24,60.2,24,46c0-17.7,14.3-32,32-32s32,14.3,32,32c0,14.2-9.2,26.2-22,30.4"/>
	</g>
	<g class="st2">
		<path class="st3" d="M66,84.7C83.3,80.3,96,64.6,96,46C96,23.9,78.1,6,56,6S16,23.9,16,46c0,18.6,12.7,34.3,30,38.7"/>
	</g>
	<g class="st2">
		<path class="st3" d="M46,93C24.3,88.4,8,69.1,8,46C8,19.5,29.5-2,56-2s48,21.5,48,48c0,23.1-16.3,42.4-38,47"/>
	</g>
	<g class="st2">
		<circle class="st3" cx="56" cy="46" r="56"/>
	</g>
	<g>
		<path class="st4" d="M116,4v88H92V4H116z"/>
		<path class="st5" d="M116,3.5h0.5V4v88v0.5H116H92h-0.5V92V4V3.5H92H116z"/>
	</g>
	<g>
		<path class="st4" d="M-4,4v88h24V4H-4z"/>
		<path class="st5" d="M-4,3.5h-0.5V4v88v0.5H-4h24h0.5V92V4V3.5H20H-4z"/>
	</g>
	<g class="st6">
		<path class="st7" d="M52,61.5V97"/>
	</g>
	<g class="st6">
		<path class="st7" d="M60,61.5V97"/>
	</g>
</g>
<g>
	<circle class="st4" cx="56" cy="46" r="16"/>
	<circle class="st5" cx="56" cy="46" r="16.5"/>
</g>
<circle class="st8" cx="56" cy="46" r="13.5"/>
<path class="st9" d="M54.6,39.9l-5.1,11.7c-0.5,1.2,0.7,2.5,1.9,2l4.4-1.7c0.1,0,0.2,0,0.4,0l4.4,1.7c1.2,0.5,2.4-0.8,1.9-2
	l-5.1-11.7C56.8,38.7,55.2,38.7,54.6,39.9z"/>
</svg>
