<?xml version="1.0" encoding="utf-8"?>
<!-- Generator: Adobe Illustrator 26.0.3, SVG Export Plug-In . SVG Version: 6.00 Build 0)  -->
<svg version="1.1" id="Layer_1" xmlns="http://www.w3.org/2000/svg" xmlns:xlink="http://www.w3.org/1999/xlink" x="0px" y="0px"
	 viewBox="0 0 112 96" style="enable-background:new 0 0 112 96;" xml:space="preserve">
<style type="text/css">
	.st0{fill:url(#SVGID_1_);filter:url(#Adobe_OpacityMaskFilter);}
	.st1{mask:url(#mask0_00000098217020648436572560000013313248635551477409_);}
	.st2{opacity:0.1;}
	.st3{fill:none;stroke:#111827;stroke-width:2;}
	.st4{opacity:0.2;}
	.st5{fill:#4F46E5;}
	.st6{fill:#FFFFFF;}
	.st7{fill:none;stroke:#121826;stroke-opacity:8.000000e-02;}
	.st8{fill:#D3A98C;}
	.st9{fill:#E5E7EB;}
	.st10{fill:#D3A98C;stroke:#D3A98C;}
</style>
<defs>
	<filter id="Adobe_OpacityMaskFilter" filterUnits="userSpaceOnUse" x="-1" y="-20" width="114" height="143">
		<feColorMatrix  type="matrix" values="1 0 0 0 0  0 1 0 0 0  0 0 1 0 0  0 0 0 1 0"/>
	</filter>
</defs>
<mask maskUnits="userSpaceOnUse" x="-1" y="-20" width="114" height="143" id="mask0_00000098217020648436572560000013313248635551477409_">
	
		<radialGradient id="SVGID_1_" cx="-929.2174" cy="1061.9319" r="1" gradientTransform="matrix(4.225032e-15 69 72.9204 -4.465087e-15 -77380.5 64164)" gradientUnits="userSpaceOnUse">
		<stop  offset="0.2319" style="stop-color:#C4C4C4"/>
		<stop  offset="0.7246" style="stop-color:#C4C4C4;stop-opacity:0"/>
	</radialGradient>
	<rect x="4" y="4" class="st0" width="104" height="88"/>
</mask>
<g class="st1">
	<g class="st2">
		<circle class="st3" cx="56" cy="66" r="8"/>
	</g>
	<g class="st2">
		<circle class="st3" cx="56" cy="66" r="16"/>
	</g>
	<g class="st2">
		<circle class="st3" cx="56" cy="66" r="24"/>
	</g>
	<g class="st2">
		<circle class="st3" cx="56" cy="66" r="32"/>
	</g>
	<g class="st2">
		<circle class="st3" cx="56" cy="66" r="40"/>
	</g>
	<g class="st2">
		<circle class="st3" cx="56" cy="66" r="48"/>
	</g>
	<g class="st2">
		<circle class="st3" cx="56" cy="66" r="56"/>
	</g>
	<g class="st4">
		<path class="st5" d="M42,72h28l5.1-10.2c1.3-2.7-0.6-5.8-3.6-5.8H40.5c-3,0-4.9,3.1-3.6,5.8L42,72z"/>
	</g>
	<g>
		<path class="st6" d="M12-19h88c4.4,0,8,3.6,8,8v69c0,4.4-3.6,8-8,8H12c-4.4,0-8-3.6-8-8v-69C4-15.4,7.6-19,12-19z"/>
		<path class="st7" d="M12-19.5h88c4.7,0,8.5,3.8,8.5,8.5v69c0,4.7-3.8,8.5-8.5,8.5H12c-4.7,0-8.5-3.8-8.5-8.5v-69
			C3.5-15.7,7.3-19.5,12-19.5z"/>
	</g>
</g>
<g>
	<path class="st6" d="M36,24c0-2.2,1.8-4,4-4h32c2.2,0,4,1.8,4,4v18.2c0,2.1-1.6,3.9-3.8,4l-12.1,0.7c-0.6,0-1.2,0.3-1.5,0.8l-1,1.4
		c-0.8,1.1-2.5,1.1-3.3,0l-1-1.4c-0.4-0.5-0.9-0.8-1.5-0.8l-12.1-0.7c-2.1-0.1-3.8-1.9-3.8-4V24z"/>
	<path class="st7" d="M40,19.5c-2.5,0-4.5,2-4.5,4.5v18.2c0,2.4,1.9,4.4,4.2,4.5l12.1,0.7c0.5,0,0.9,0.3,1.1,0.6l1,1.4
		c1,1.4,3.1,1.4,4.1,0l1-1.4c0.3-0.4,0.7-0.6,1.1-0.6l12.1-0.7c2.4-0.1,4.2-2.1,4.2-4.5V24c0-2.5-2-4.5-4.5-4.5H40z"/>
</g>
<path class="st8" d="M43,26h16c0.6,0,1,0.4,1,1v1c0,0.6-0.4,1-1,1H43c-0.6,0-1-0.4-1-1v-1C42,26.4,42.4,26,43,26z"/>
<path class="st9" d="M42,34c0-0.6,0.4-1,1-1h24c0.6,0,1,0.4,1,1s-0.4,1-1,1H43C42.4,35,42,34.6,42,34z"/>
<path class="st9" d="M42,39c0-0.6,0.4-1,1-1h24c0.6,0,1,0.4,1,1s-0.4,1-1,1H43C42.4,40,42,39.6,42,39z"/>
<g>
	<circle class="st8" cx="56" cy="66" r="8"/>
	<circle class="st10" cx="56" cy="66" r="8.5"/>
</g>
<g>
	<circle class="st6" cx="56" cy="66" r="2"/>
</g>
</svg>
