<?xml version="1.0" encoding="utf-8"?>
<!-- Generator: Adobe Illustrator 26.0.3, SVG Export Plug-In . SVG Version: 6.00 Build 0)  -->
<svg version="1.1" id="Layer_1" xmlns="http://www.w3.org/2000/svg" xmlns:xlink="http://www.w3.org/1999/xlink" x="0px" y="0px"
	 viewBox="0 0 112 96" style="enable-background:new 0 0 112 96;" xml:space="preserve">
<style type="text/css">
	.st0{fill:url(#SVGID_1_);filter:url(#Adobe_OpacityMaskFilter);}
	.st1{mask:url(#mask0_00000049223583696991909660000011592869593775701166_);}
	.st2{fill:#FFFFFF;}
	.st3{fill:none;stroke:#121826;stroke-opacity:8.000000e-02;}
	.st4{opacity:0.2;}
	.st5{fill:#4F46E5;}
	.st6{opacity:0.6;fill:none;stroke:#E5E7EB;stroke-width:2;enable-background:new    ;}
	.st7{fill:none;stroke:#D3A98C;stroke-width:2;stroke-linecap:round;}
</style>
<defs>
	<filter id="Adobe_OpacityMaskFilter" filterUnits="userSpaceOnUse" x="43" y="46" width="26" height="40.7">
		<feColorMatrix  type="matrix" values="1 0 0 0 0  0 1 0 0 0  0 0 1 0 0  0 0 0 1 0"/>
	</filter>
</defs>
<mask maskUnits="userSpaceOnUse" x="43" y="46" width="26" height="40.7" id="mask0_00000049223583696991909660000011592869593775701166_">
	
		<radialGradient id="SVGID_1_" cx="-933.5842" cy="1057.8346" r="1" gradientTransform="matrix(6.184467e-15 101 106.739 -6.535879e-15 -112856.2109 94308)" gradientUnits="userSpaceOnUse">
		<stop  offset="0.5421" style="stop-color:#C4C4C4"/>
		<stop  offset="0.7574" style="stop-color:#C4C4C4;stop-opacity:0"/>
	</radialGradient>
	<rect x="4" y="4" class="st0" width="104" height="88"/>
</mask>
<g class="st1">
	<g>
		<path class="st2" d="M44,49c0-1.1,0.9-2,2-2h20c1.1,0,2,0.9,2,2v34.7c0,1.7-2,2.6-3.3,1.5l-7.4-6.2c-0.7-0.6-1.8-0.6-2.6,0
			l-7.4,6.2C46,86.4,44,85.4,44,83.7V49z"/>
		<path class="st3" d="M46,46.5c-1.4,0-2.5,1.1-2.5,2.5v34.7c0,2.1,2.5,3.3,4.1,1.9l7.4-6.2c0.6-0.5,1.4-0.5,1.9,0l7.4,6.2
			c1.6,1.4,4.1,0.2,4.1-1.9V49c0-1.4-1.1-2.5-2.5-2.5H46z"/>
	</g>
</g>
<g class="st4">
	<path class="st5" d="M50.8,15.4c3-2.5,7.4-2.5,10.4,0l2.6,2.2c1.3,1.1,2.9,1.8,4.6,1.9l3.5,0.3c3.9,0.3,7,3.4,7.3,7.3l0.3,3.5
		c0.1,1.7,0.8,3.3,1.9,4.6l2.2,2.6c2.5,3,2.5,7.4,0,10.4l-2.2,2.6c-1.1,1.3-1.8,2.9-1.9,4.6l-0.3,3.5c-0.3,3.9-3.4,7-7.3,7.3
		l-3.5,0.3c-1.7,0.1-3.3,0.8-4.6,1.9l-2.6,2.2c-3,2.5-7.4,2.5-10.4,0l-2.6-2.2c-1.3-1.1-2.9-1.8-4.6-1.9l-3.5-0.3
		c-3.9-0.3-7-3.4-7.3-7.3l-0.3-3.5c-0.1-1.7-0.8-3.3-1.9-4.6l-2.2-2.6c-2.5-3-2.5-7.4,0-10.4l2.2-2.6c1.1-1.3,1.8-2.9,1.9-4.6
		l0.3-3.5c0.3-3.9,3.4-7,7.3-7.3l3.5-0.3c1.7-0.1,3.3-0.8,4.6-1.9L50.8,15.4z"/>
</g>
<g>
	<path class="st2" d="M50.8,12.4c3-2.5,7.4-2.5,10.4,0l2.6,2.2c1.3,1.1,2.9,1.8,4.6,1.9l3.5,0.3c3.9,0.3,7,3.4,7.3,7.3l0.3,3.5
		c0.1,1.7,0.8,3.3,1.9,4.6l2.2,2.6c2.5,3,2.5,7.4,0,10.4l-2.2,2.6c-1.1,1.3-1.8,2.9-1.9,4.6l-0.3,3.5c-0.3,3.9-3.4,7-7.3,7.3
		l-3.5,0.3c-1.7,0.1-3.3,0.8-4.6,1.9l-2.6,2.2c-3,2.5-7.4,2.5-10.4,0l-2.6-2.2c-1.3-1.1-2.9-1.8-4.6-1.9l-3.5-0.3
		c-3.9-0.3-7-3.4-7.3-7.3l-0.3-3.5c-0.1-1.7-0.8-3.3-1.9-4.6l-2.2-2.6c-2.5-3-2.5-7.4,0-10.4l2.2-2.6c1.1-1.3,1.8-2.9,1.9-4.6
		l0.3-3.5c0.3-3.9,3.4-7,7.3-7.3l3.5-0.3c1.7-0.1,3.3-0.8,4.6-1.9L50.8,12.4z"/>
	<path class="st3" d="M61.5,12c-3.2-2.7-7.8-2.7-11,0l-2.6,2.2c-1.2,1-2.7,1.6-4.3,1.8l-3.5,0.3c-4.2,0.3-7.5,3.6-7.8,7.8l-0.3,3.5
		c-0.1,1.6-0.7,3.1-1.8,4.3L28,34.5c-2.7,3.2-2.7,7.8,0,11l2.2,2.6c1,1.2,1.6,2.7,1.8,4.3l0.3,3.5c0.3,4.2,3.6,7.5,7.8,7.8l3.5,0.3
		c1.6,0.1,3.1,0.7,4.3,1.8l2.6,2.2c3.2,2.7,7.8,2.7,11,0l2.6-2.2c1.2-1,2.7-1.6,4.3-1.8l3.5-0.3c4.2-0.3,7.5-3.6,7.8-7.8l0.3-3.5
		c0.1-1.6,0.7-3.1,1.8-4.3l2.2-2.6c2.7-3.2,2.7-7.8,0-11l-2.2-2.6c-1-1.2-1.6-2.7-1.8-4.3l-0.3-3.5c-0.3-4.2-3.6-7.5-7.8-7.8
		l-3.5-0.3c-1.6-0.1-3.1-0.7-4.3-1.8L61.5,12z"/>
</g>
<circle class="st6" cx="56" cy="40" r="20"/>
<path class="st7" d="M49,41l3.4,3.4c0.8,0.8,2.2,0.8,3-0.1L63,35"/>
</svg>
