<svg width="737" height="779" viewBox="0 0 737 779" fill="none" xmlns="http://www.w3.org/2000/svg">
<path d="M271.531 305.164C290.977 393.809 312.941 490.106 312.941 490.106C312.941 490.106 262.719 417.656 228.752 351.459C194.785 285.262 161.082 197.959 161.082 197.959C161.082 197.959 178.023 176.114 199.565 154.393C221.108 132.671 241.891 117.914 241.891 117.914C241.891 117.914 252.084 216.52 271.531 305.164Z" fill="#62B3C5"/>
<path d="M250.141 192.019C297.158 199.503 328.711 205.905 380.951 219.976C380.951 219.976 343.565 185.121 313.628 163.362C283.691 141.603 241.892 117.914 241.892 117.914C241.892 117.914 242.08 129.203 245.352 154.546C248.624 179.888 250.141 192.019 250.141 192.019Z" fill="#43778B"/>
<path d="M269.397 295.435L612.012 308.653C612.012 308.653 559.348 277.15 446.996 239.479C334.644 201.808 249.904 190.938 249.904 190.938C249.904 190.938 250.568 204.389 258.014 243.546C265.46 282.702 269.397 295.435 269.397 295.435Z" fill="#D7782D"/>
<path d="M612.012 308.653L646.117 422.408C646.117 422.408 527.645 372.483 418.425 338.657C309.204 304.831 269.713 295.468 269.713 295.468C269.713 295.468 355.344 289.801 441.436 293.478C527.528 297.156 612.012 308.653 612.012 308.653Z" fill="#DDAC2F"/>
<path d="M566.693 388.844L471.664 485.608C471.664 485.608 503.628 481.992 567.589 455.497C631.55 429.003 644.788 421.566 644.788 421.566L566.693 388.844Z" fill="#D7782D"/>
<path d="M230.705 562.259L193.897 430.968C193.897 430.968 186.161 453.06 176.381 523.189C166.601 593.317 170.633 611.695 170.633 611.695L230.705 562.259Z" fill="#C71107"/>
<path d="M230.705 562.259L313.174 489.781C313.174 489.781 277.73 439.765 243.62 378.132C209.511 316.498 161.082 197.959 161.082 197.959C161.082 197.959 156.238 248.876 179.194 363.944C202.149 479.012 230.705 562.259 230.705 562.259Z" fill="#43778B"/>
<path d="M314.194 486.158C381.172 423.98 459.205 351.306 459.205 351.306C459.205 351.306 438.655 418.959 398.509 481.962C358.363 544.966 281.105 639.611 281.105 639.611C281.105 639.611 253.566 636.414 223.797 629.231C194.029 622.048 170.608 611.584 170.608 611.584C170.608 611.584 247.215 548.336 314.194 486.158Z" fill="#E73026"/>
<path d="M566.699 388.787L458.944 351.556C458.944 351.556 436.776 414.865 400.659 475.643C364.542 536.42 281.105 639.611 281.105 639.611C281.105 639.611 327.707 617.543 415.812 538.781C503.917 460.018 566.699 388.787 566.699 388.787Z" fill="#C71107"/>
</svg>
